<svg width="111" height="30" fill="none" xmlns="http://www.w3.org/2000/svg"><g clip-path="url(#clip0)" fill-rule="evenodd" clip-rule="evenodd"><path d="M31.196 19.474a4.55 4.55 0 01-3.645-3.643.277.277 0 00-.29-.2l-.07.008-1.568.207a2.572 2.572 0 00-1.717 3.685l.06.104c.478.798 1.263 1.257 2.137 1.29a2.572 2.572 0 005.078.477l.206-1.566.008-.07a.28.28 0 00-.08-.218.237.237 0 00-.119-.074zm-3.645-5.3a4.55 4.55 0 013.643-3.645.264.264 0 00.12-.072c.06-.06.087-.14.081-.218l-.008-.07-.208-1.568a2.572 2.572 0 00-3.685-1.717l-.104.06c-.798.478-1.257 1.263-1.289 2.137a2.572 2.572 0 00-.478 5.078l1.566.205.07.009a.28.28 0 00.218-.08.236.236 0 00.074-.119zm8.945 0a4.55 4.55 0 00-3.643-3.645.264.264 0 01-.12-.072.275.275 0 01-.08-.218l.008-.07.207-1.568a2.572 2.572 0 013.685-1.717l.104.06c.798.478 1.258 1.263 1.29 2.137a2.572 2.572 0 01.478 5.078l-1.567.205-.07.009a.28.28 0 01-.218-.08.236.236 0 01-.074-.119zm-3.645 5.3a4.55 4.55 0 003.645-3.643.264.264 0 01.072-.12c.06-.06.14-.087.218-.08l.07.008 1.569.207a2.572 2.572 0 011.717 3.685l-.06.104c-.478.798-1.264 1.257-2.138 1.29a2.572 2.572 0 01-5.078.477l-.205-1.566-.009-.07a.28.28 0 01.08-.218.236.236 0 01.12-.074h-.001z" fill="#102335"/><path d="M15.378 10.323a8.4 8.4 0 10-13.727 9.68 8.401 8.401 0 0013.729-.325.602.602 0 00-.229-.781l-2.373-1.37a.595.595 0 00-.76.148 4.5 4.5 0 110-5.351.598.598 0 00.76.148l2.373-1.37a.602.602 0 00.227-.78v.001zM17.547.599V22.5c0 .333.269.6.599.6h2.7a.6.6 0 00.6-.6V.6a.599.599 0 00-.6-.599h-2.698a.6.6 0 00-.601.599V.599zm23.595 6.689l5.633 15.473a.599.599 0 00.54.338h3.735a.597.597 0 00.54-.338l5.632-15.473a.3.3 0 00-.288-.387H53.63a.597.597 0 00-.54.338l-3.905 10.732L45.28 7.239a.6.6 0 00-.54-.339h-3.304a.3.3 0 00-.3.301.173.173 0 00.006.087zM68.33 6.89a8.4 8.4 0 103.323 14.466.601.601 0 00.007-.85l-1.928-1.928a.596.596 0 00-.76-.063 4.492 4.492 0 01-3.982.836 4.49 4.49 0 01-3.078-2.847h11.992a.6.6 0 00.594-.525 8.398 8.398 0 00-6.168-9.09v.001zm-6.418 6.614a4.503 4.503 0 017.3-1.805 4.49 4.49 0 011.186 1.805h-8.486zM77.098 7.5v15a.6.6 0 00.599.6h2.7a.598.598 0 00.6-.6v-7.523a4.502 4.502 0 013.977-4.447.6.6 0 00.523-.595V6.99a.302.302 0 00-.337-.298c-1.606.258-2.967.87-4.163 1.875l-.466-1.28a.602.602 0 00-.561-.386h-2.273a.6.6 0 00-.6.6l.001-.001zM87.773.599V22.5c0 .333.27.6.6.6h2.7a.6.6 0 00.6-.6V.6a.599.599 0 00-.6-.599h-2.7a.6.6 0 00-.6.599V.599zm6.164 6.689L99.57 22.76a.599.599 0 00.539.338l-2.37 6.514a.3.3 0 00.288.387h3.304a.597.597 0 00.539-.339l2.388-6.562.123-.338 5.632-15.473a.296.296 0 00.008-.139.298.298 0 00-.296-.248h-3.304a.6.6 0 00-.54.338l-3.905 10.732-3.905-10.732a.6.6 0 00-.54-.339h-3.304a.3.3 0 00-.3.301.21.21 0 00.01.087v.001z" fill="#fff"/></g><defs><clipPath id="clip0"><path fill="#fff" d="M0 0h111v30H0z"/></clipPath></defs></svg>